<?xml version="1.0" encoding="UTF-8"?>
<svg id="SVGDoc" width="36" height="59" xmlns="http://www.w3.org/2000/svg" version="1.1" xmlns:xlink="http://www.w3.org/1999/xlink" xmlns:avocode="https://avocode.com/" viewBox="0 0 36 59"><defs></defs><desc>Generated with Avocode.</desc><g><g><title>Vector</title><path d="M35.9841,26.5459c-0.0056,-1.3932 -0.9765,-2.5691 -2.3334,-2.9536c-1.3909,-0.3901 -2.8329,0.1281 -3.6335,1.3096c-0.1078,0.156 -0.21,0.3176 -0.4314,0.6464c0.1419,-1.956 -0.4485,-3.3827 -2.2766,-3.94c-1.7884,-0.5405 -3.1112,0.2285 -4.0707,1.7778c0.1192,-1.9673 -0.4769,-3.4831 -2.5321,-4.0571c-1.4364,-0.4012 -2.6002,0.2006 -3.8379,1.9672c0,-0.4514 0,-0.7133 0,-0.9752c0,-3.8453 0,-7.69615 0,-11.54143c0,-0.35667 -0.0113,-0.71333 -0.0511,-1.06442c-0.2327,-1.92264 -1.9473,-3.15425 -3.8946,-2.79201c-1.7259,0.31765 -2.7933,1.60499 -2.7933,3.42174c-0.0056,6.55932 0,13.12412 0,19.68342c0,0.2507 0,0.5015 0,0.9251c-0.32925,-0.34 -0.49957,-0.5462 -0.70396,-0.7134c-1.51017,-1.2706 -2.98628,-2.5802 -4.55322,-3.7839c-0.78915,-0.6075 -1.75998,-0.9028 -2.81028,-0.8025c-1.5556,0.1504 -2.45261,1.421 -1.89624,2.8477c0.27819,0.7189 0.68696,1.4044 1.1525,2.023c1.33418,1.7721 2.657,3.5443 3.62782,5.545c1.74862,3.6112 3.52563,7.2113 5.29128,10.8169c0.7153,1.4601 1.1639,2.9871 1.0957,4.6311c-0.0056,0.1058 0.0171,0.2173 0.0398,0.3232c0.3236,5.1159 4.644,9.1674 9.9353,9.1674h1.6124c0.8289,0 1.6634,-0.1003 2.4696,-0.301c0.7835,-0.195 1.5386,-0.4848 2.2482,-0.8638c0.6984,-0.3733 1.3569,-0.8247 1.9474,-1.3486c0.5904,-0.5238 1.1127,-1.1146 1.5612,-1.7555c0.4542,-0.652 0.8233,-1.3542 1.1014,-2.0898c0.1817,-0.4737 0.335,-0.9585 0.4202,-1.4601c0.0908,-0.5127 0.1305,-1.031 0.21,-1.5437c0.1363,-0.9139 0.4372,-1.7777 0.6643,-2.6749c0.0284,-0.0948 0.1078,-0.2341 0.1078,-0.3288c0.3691,-1.07 0.8857,-2.0954 1.3115,-3.1487c0.6075,-1.4991 1.0049,-3.0595 1.0163,-4.6701c0.0283,-4.0905 0.0227,-8.1865 0.0056,-12.277z" fill="#ff9f0d" fill-opacity="1"></path></g><g><title>Vector</title><path d="M10.23909,16.479c-2.86138,0 -5.18909,-2.2849 -5.18909,-5.0936v-6.29179c0,-2.80873 2.32771,-5.09361 5.18909,-5.09361h6.40401c2.8614,0 5.1891,2.28488 5.1891,5.09361v6.28619c0.0057,2.8143 -2.322,5.0992 -5.1834,5.0992zM7.88867,5.09361v6.28619c0,1.2706 1.05599,2.3072 2.35042,2.3072h6.40401c1.3001,0 2.3504,-1.0366 2.3504,-2.3072v-6.28619c0,-1.27062 -1.0559,-2.30717 -2.3504,-2.30717h-6.40401c-1.30011,0 -2.35042,1.03655 -2.35042,2.30717z" fill="#ff9f0d" fill-opacity="1"></path></g></g></svg>