<?xml version="1.0" encoding="UTF-8"?>
<svg id="SVGDoc" width="95" height="50" xmlns="http://www.w3.org/2000/svg" version="1.1" xmlns:xlink="http://www.w3.org/1999/xlink" xmlns:avocode="https://avocode.com/" viewBox="0 0 95 50"><defs></defs><desc>Generated with Avocode.</desc><g><g><title>Vector</title><path d="M75.9188,24.0801c1.1032,2.7155 1.0503,7.07 -0.102,9.7966c-0.699,0 -1.4471,0 -2.1952,0c-19.2123,0 -38.4322,-0.2346 -57.637,0.1341c-6.25676,0.1192 -9.27935,-6.8576 -7.16354,-11.0631c1.49241,0.4694 3.01503,0.9499 4.71902,1.4863c2.55031,-9.2304 8.84862,-14.94823 17.50462,-18.33048c7.3108,-2.86076 14.8484,-3.30031 22.8734,-1.51605c-3.0377,2.32436 -5.248,4.89085 -5.8071,8.51153c-0.5403,3.4754 0.2153,6.7012 1.5415,9.6141c0,-1.7321 -0.0416,-3.6281 0.0075,-5.5204c0.1738,-6.839 4.583,-13.61842 14.4556,-11.73732c4.4318,0.84184 8.8486,1.75818 13.2767,2.62236c0.6121,0.1192 1.243,0.17508 1.8664,0.20488c3.9105,0.17879 3.8312,0.15272 4.7682,-3.46048c0.3476,-1.33726 0.9483,-2.72667 1.8135,-3.79573c0.6121,-0.75616 1.6247,-1.3596 2.5806,-0.81949c0.5629,0.32035 0.9105,0.89772 1.1259,1.48626c0.3287,0.89771 0.2833,1.8066 0.2909,2.74156c0.0076,0.95731 0.4081,1.82895 1.0655,2.52552c0.8803,0.93496 2.0931,1.48625 2.981,2.42494c0.8388,0.8791 1.4735,2.0711 0.8841,3.2631c-0.8425,1.6911 -2.6334,2.0412 -4.3979,1.8103c-1.2279,-0.1602 -2.5427,-0.4209 -3.578,-1.0318c-1.3752,-0.8083 -2.2669,-0.3762 -3.321,0.4507c-4.073,3.1997 -8.1308,6.4218 -12.2982,9.5023c-3.5704,2.6373 -7.3298,4.9989 -11.8523,5.8184c6.5401,1.5645 11.4103,-2.3169 16.5978,-5.1181zM41.3517,11.2626c0.5629,0 1.1297,-0.0335 1.6926,0.0074c1.2091,0.0931 2.2405,-0.2011 2.2859,-1.557c0.0415,-1.25531 -0.9748,-1.66878 -2.0629,-1.65761c-1.8778,0.01863 -3.7707,0.01118 -5.6258,0.2533c-5.7619,0.75616 -10.5338,3.42321 -14.448,7.61011c-1.073,1.151 -0.9257,2.6112 0.3287,2.7676c0.7367,0.0931 1.7682,-0.4284 2.3387,-0.9946c4.2845,-4.239 9.4003,-6.4553 15.4908,-6.4292z" fill="#ff9f0d" fill-opacity="1"></path></g><g><title>Vector</title><path d="M90.2848,36.71c-0.3628,0.66304 -0.5706,1.25903 -0.9522,1.7023c-2.2707,2.62609 -4.4469,5.34903 -6.9179,7.78143c-2.7921,2.75277 -6.1359,3.85907 -10.3184,3.80687c-19.2161,-0.2309 -38.436,-0.0856 -57.6521,-0.1452c-1.1788,-0.0038 -2.4823,-0.38 -3.5062,-0.9611c-4.92682,-2.8086 -8.30079,-7.02152 -10.938,-12.1843c30.1503,0 60.0626,0 90.2848,0z" fill="#ff9f0d" fill-opacity="1"></path></g></g></svg>