<?xml version="1.0" encoding="UTF-8"?>
<svg id="SVGDoc" width="20" height="19" xmlns="http://www.w3.org/2000/svg" version="1.1" xmlns:xlink="http://www.w3.org/1999/xlink" xmlns:avocode="https://avocode.com/" viewBox="0 0 20 19">
	<defs>
		<clipPath id="clip-4:153">
			<path d="M10,15.27v0l6.18,3.73v0l-1.64,-7.03v0l5.46,-4.73v0l-7.19,-0.61v0l-2.81,-6.63v0l-2.81,6.63v0l-7.19,0.61v0l5.46,4.73v0l-1.64,7.03v0z">
			</path>
		</clipPath>
	</defs>
	<desc>
		Generated with Avocode.
	</desc>
	<g>
		<g>
			<title>
				Group 49
			</title>
			<g>
				<title>
					Icon
				</title>
				<path d="M10,15.27v0l6.18,3.73v0l-1.64,-7.03v0l5.46,-4.73v0l-7.19,-0.61v0l-2.81,-6.63v0l-2.81,6.63v0l-7.19,0.61v0l5.46,4.73v0l-1.64,7.03v0z" fill-opacity="1">
				</path>
			</g>
			<g clip-path="url(#clip-4:153)">
				<title>
					Group 48
				</title>
				<g>
					<title>
						Gray 85
					</title>
					<path d="M-3,-3v0h26v0v26v0h-26v0z" fill-opacity="1">
					</path>
				</g>
			</g>
			<g clip-path="url(#clip-4:153)">
				<title>
					Icon
				</title>
				<path d="M35,15.27v0l6.18,3.73v0l-1.64,-7.03v0l5.46,-4.73v0l-7.19,-0.61v0l-2.81,-6.63v0l-2.81,6.63v0l-7.19,0.61v0l5.46,4.73v0l-1.64,7.03v0z" fill-opacity="1">
				</path>
			</g>
			<g clip-path="url(#clip-4:153)">
				<title>
					Group 47
				</title>
				<g>
					<title>
						Gray 85
					</title>
					<path d="M22,-3v0h26v0v26v0h-26v0z" fill-opacity="1">
					</path>
				</g>
			</g>
			<g clip-path="url(#clip-4:153)">
				<title>
					Icon
				</title>
				<path d="M60,15.27v0l6.18,3.73v0l-1.64,-7.03v0l5.46,-4.73v0l-7.19,-0.61v0l-2.81,-6.63v0l-2.81,6.63v0l-7.19,0.61v0l5.46,4.73v0l-1.64,7.03v0z" fill-opacity="1">
				</path>
			</g>
			<g clip-path="url(#clip-4:153)">
				<title>
					Group 46
				</title>
				<g>
					<title>
						Gray 85
					</title>
					<path d="M47,-3v0h26v0v26v0h-26v0z" fill-opacity="1">
					</path>
				</g>
			</g>
		</g>
	</g>
</svg>
