<?xml version="1.0" encoding="UTF-8"?>
<svg id="SVGDoc" width="103" height="52" xmlns="http://www.w3.org/2000/svg" version="1.1" xmlns:xlink="http://www.w3.org/1999/xlink" xmlns:avocode="https://avocode.com/" viewBox="0 0 103 52"><defs></defs><desc>Generated with Avocode.</desc><g><g><title>Vector</title><path d="M103,28.4349c-0.193,1.8073 -0.407,3.6126 -0.578,5.4219c-0.21,2.2224 -0.371,4.451 -0.583,6.6735c-0.238,2.5135 -1.691,3.5962 -4.1906,3.1566c-0.127,-1.0319 -0.1573,-2.0861 -0.3991,-3.0895c-1.2982,-5.3587 -6.6963,-8.3444 -12.1045,-6.59c-4.3399,1.4084 -7.0148,4.453 -7.8876,9.014c-0.0967,0.5047 -0.2036,0.7856 -0.7902,0.7856c-10.5281,-0.0183 -21.0543,-0.0204 -31.5825,-0.0285c-0.0605,0 -0.1229,-0.0448 -0.2217,-0.0835c-0.1008,-0.9443 -0.1129,-1.9273 -0.3185,-2.8676c-1.2941,-5.9225 -7.5167,-8.959 -13.2615,-6.4211c-3.717,1.6424 -6.0472,4.4999 -6.7709,8.5846c-0.1088,0.6187 -0.3406,0.8364 -0.9736,0.8242c-1.9431,-0.0407 -3.8903,0.0183 -5.8335,-0.0285c-1.7396,-0.0427 -2.7333,-1.1519 -2.5922,-2.8981c0.3084,-3.8425 0.6652,-7.681 1.0119,-11.6313c0.3688,-0.0163 0.7236,-0.0448 1.0784,-0.0448c2.6144,-0.0041 5.2308,-0.0041 7.8452,-0.0021c0.8769,0.0021 1.5783,-0.289 1.9412,-1.1539c0.4132,-0.9871 -0.1492,-1.962 -1.2034,-2.0739c-0.2984,-0.0326 -0.6027,-0.0143 -0.9051,-0.0143c-7.3433,0 -14.68461,0 -22.02793,-0.002c-0.23383,0 -0.46967,0.002 -0.7035,0c-1.282,-0.0142 -1.96131,-0.5454 -1.94921,-1.5264c0.01209,-1.0034 0.79622,-1.7116 1.96736,-1.7137c6.26893,-0.0081 12.53988,-0.0061 18.80878,-0.0061c4.6261,0 9.2543,0.0021 13.8804,0c0.3346,0 0.6773,0.0183 1.0018,-0.0448c0.9232,-0.1791 1.5703,-1.0359 1.4695,-1.8947c-0.1008,-0.8406 -0.6874,-1.2985 -1.7336,-1.2985c-8.9176,-0.0041 -17.8372,-0.0041 -26.7548,-0.0041c-0.30236,0 -0.60473,0.0122 -0.90507,-0.0041c-0.94135,-0.0549 -1.50172,-0.5637 -1.55211,-1.3941c-0.05443,-0.8772 0.55029,-1.6729 1.41907,-1.8134c0.32857,-0.0529 0.66923,-0.0325 1.00384,-0.0325c6.67207,-0.0021 13.34417,-0.0021 20.01627,-0.0021c0.3023,0 0.6047,0.0183 0.905,-0.0081c1.0502,-0.0957 1.7719,-0.8996 1.7033,-1.8806c-0.0625,-0.9016 -0.6329,-1.3514 -1.7718,-1.3514c-7.8795,-0.004 -15.757,-0.002 -23.6365,-0.004c-0.40315,0 -0.80428,0.0101 -1.20743,-0.0041c-1.02197,-0.0346 -1.6025,-0.5312 -1.65491,-1.3941c-0.05443,-0.9138 0.59665,-1.71369 1.52188,-1.83173c0.33058,-0.04274 0.66922,-0.01832 1.00383,-0.01832c9.35303,0 18.70803,0.00814 28.06103,-0.02442c0.5886,-0.00203 1.3425,-0.1791 1.7154,-0.56986c0.3608,-0.37652 0.5563,-1.213 0.3951,-1.70552c-0.1371,-0.42129 -0.8668,-0.8609 -1.3647,-0.90161c-1.4654,-0.12007 -2.947,-0.04477 -4.4225,-0.04477c-6.1359,0 -12.2718,0.00203 -18.4057,0c-1.411,0 -2.06206,-0.4681 -2.07214,-1.48164c-0.01007,-1.07867 0.79824,-1.76251 2.11654,-1.76454c2.177,-0.00611 4.352,-0.00204 6.5451,-0.00204c0.0645,-0.28493 0.1149,-0.51288 0.1673,-0.73879c0.3709,-1.5834 1.4715,-2.50129 3.0861,-2.50129c17.9702,-0.00611 35.9405,-0.00611 53.9108,-0.00204c1.8121,0 2.8059,1.06645 2.6749,2.88798c-0.1653,2.2937 -0.381,4.58536 -0.5725,6.87703c-0.0302,0.36025 -0.0403,0.72255 -0.0665,1.18655c0.9474,0 1.8121,0 2.6769,0c2.5821,0 5.1623,0.0102 7.7444,-0.0021c2.0581,-0.0081 3.7896,0.7246 5.1825,2.2591c2.8079,3.0956 5.6763,6.1383 8.383,9.3193c0.815,0.9566 1.184,2.3019 1.756,3.4681c0.004,0.812 0.004,1.6241 0.004,2.4361zM97.9326,23.1963c-0.0786,-0.1629 -0.1028,-0.2646 -0.1653,-0.3338c-2.3927,-2.6438 -4.7753,-5.2977 -7.1941,-7.917c-0.8124,-0.8793 -1.8848,-1.268 -3.07,-1.2741c-2.3423,-0.0122 -4.6846,-0.0061 -7.0269,0.002c-0.2499,0 -0.5019,0.0652 -0.768,0.1018c-0.2701,3.1688 -0.5341,6.2563 -0.8042,9.4211c6.3777,0 12.6749,0 19.0285,0z" fill="#ff9f0d" fill-opacity="1"></path></g><g><title>Vector</title><path d="M86.55651,51.9966c-4.20482,-0.0285 -7.4683,-3.3581 -7.41589,-7.56086c0.06249,-4.80517 4.19676,-8.90614 8.93979,-8.86544c4.18869,0.0346 7.46829,3.38051 7.42399,7.57104c-0.0504,4.78886 -4.1928,8.88786 -8.94789,8.85526zM87.74378,39.76287c-2.43703,-0.00814 -4.47494,2.00266 -4.46083,4.40422c0.0121,2.03111 1.66904,3.69391 3.65655,3.66951c2.3907,-0.0285 4.3842,-2.0108 4.4024,-4.3737c0.0161,-2.05964 -1.5723,-3.69189 -3.59812,-3.70003z" fill="#ff9f0d" fill-opacity="1"></path></g><g><title>Vector</title><path d="M42.5206,43.03458c0.0343,5.46862 -5.13,9.83222 -10.40723,8.79622c-4.13628,-0.812 -6.6116,-4.7339 -5.73879,-9.09336c0.91918,-4.60368 5.55738,-7.80916 10.13512,-7.00321c3.5175,0.61464 5.9887,3.61863 6.0109,7.30035zM34.63909,39.76805c-2.40275,0.06512 -4.33383,2.06982 -4.2915,4.45307c0.03629,2.04948 1.69322,3.66948 3.69484,3.61458c2.42087,-0.0672 4.46687,-2.1899 4.36607,-4.52636c-0.0907,-2.05354 -1.7315,-3.59828 -3.76941,-3.54129z" fill="#ff9f0d" fill-opacity="1"></path></g></g></svg>